<svg xmlns="http://www.w3.org/2000/svg" viewBox="0 0 12 10" shape-rendering="crispEdges" aria-hidden="true" focusable="false"><rect x="2" y="0" width="1" height="1" fill="#0b0f24"/><rect x="3" y="0" width="6" height="1" fill="#4ec27a"/><rect x="9" y="0" width="1" height="1" fill="#0b0f24"/><rect x="1" y="1" width="1" height="1" fill="#0b0f24"/><rect x="2" y="1" width="8" height="1" fill="#4ec27a"/><rect x="10" y="1" width="1" height="1" fill="#0b0f24"/><rect x="0" y="2" width="1" height="1" fill="#0b0f24"/><rect x="1" y="2" width="10" height="1" fill="#4ec27a"/><rect x="11" y="2" width="1" height="1" fill="#0b0f24"/><rect x="0" y="3" width="1" height="1" fill="#0b0f24"/><rect x="1" y="3" width="3" height="1" fill="#4ec27a"/><rect x="4" y="3" width="1" height="1" fill="#0b0f24"/><rect x="5" y="3" width="2" height="1" fill="#4ec27a"/><rect x="7" y="3" width="1" height="1" fill="#0b0f24"/><rect x="8" y="3" width="3" height="1" fill="#4ec27a"/><rect x="11" y="3" width="1" height="1" fill="#0b0f24"/><rect x="0" y="4" width="1" height="1" fill="#0b0f24"/><rect x="1" y="4" width="2" height="1" fill="#4ec27a"/><rect x="3" y="4" width="2" height="1" fill="#0b0f24"/><rect x="5" y="4" width="2" height="1" fill="#4ec27a"/><rect x="7" y="4" width="2" height="1" fill="#0b0f24"/><rect x="9" y="4" width="2" height="1" fill="#4ec27a"/><rect x="11" y="4" width="1" height="1" fill="#0b0f24"/><rect x="0" y="5" width="1" height="1" fill="#0b0f24"/><rect x="1" y="5" width="2" height="1" fill="#4ec27a"/><rect x="3" y="5" width="2" height="1" fill="#0b0f24"/><rect x="5" y="5" width="2" height="1" fill="#4ec27a"/><rect x="7" y="5" width="2" height="1" fill="#0b0f24"/><rect x="9" y="5" width="2" height="1" fill="#4ec27a"/><rect x="11" y="5" width="1" height="1" fill="#0b0f24"/><rect x="0" y="6" width="1" height="1" fill="#0b0f24"/><rect x="1" y="6" width="3" height="1" fill="#4ec27a"/><rect x="4" y="6" width="1" height="1" fill="#0b0f24"/><rect x="5" y="6" width="2" height="1" fill="#4ec27a"/><rect x="7" y="6" width="1" height="1" fill="#0b0f24"/><rect x="8" y="6" width="3" height="1" fill="#4ec27a"/><rect x="11" y="6" width="1" height="1" fill="#0b0f24"/><rect x="0" y="7" width="1" height="1" fill="#0b0f24"/><rect x="1" y="7" width="10" height="1" fill="#4ec27a"/><rect x="11" y="7" width="1" height="1" fill="#0b0f24"/><rect x="1" y="8" width="1" height="1" fill="#0b0f24"/><rect x="2" y="8" width="8" height="1" fill="#4ec27a"/><rect x="10" y="8" width="1" height="1" fill="#0b0f24"/><rect x="2" y="9" width="1" height="1" fill="#0b0f24"/><rect x="3" y="9" width="6" height="1" fill="#4ec27a"/><rect x="9" y="9" width="1" height="1" fill="#0b0f24"/></svg>