<svg xmlns="http://www.w3.org/2000/svg" viewBox="0 0 20 29" shape-rendering="crispEdges" aria-hidden="true" focusable="false"><rect x="5" y="0" width="1" height="1" fill="#0b0f24"/><rect x="6" y="0" width="4" height="1" fill="#0b0f24"/><rect x="10" y="0" width="1" height="1" fill="#0b0f24"/><rect x="4" y="1" width="1" height="1" fill="#0b0f24"/><rect x="5" y="1" width="6" height="1" fill="#0b0f24"/><rect x="11" y="1" width="1" height="1" fill="#0b0f24"/><rect x="4" y="2" width="1" height="1" fill="#0b0f24"/><rect x="5" y="2" width="1" height="1" fill="#0b0f24"/><rect x="6" y="2" width="1" height="1" fill="#9aa0b4"/><rect x="7" y="2" width="2" height="1" fill="#0b0f24"/><rect x="9" y="2" width="1" height="1" fill="#9aa0b4"/><rect x="10" y="2" width="1" height="1" fill="#0b0f24"/><rect x="11" y="2" width="1" height="1" fill="#0b0f24"/><rect x="4" y="3" width="1" height="1" fill="#0b0f24"/><rect x="5" y="3" width="6" height="1" fill="#0b0f24"/><rect x="11" y="3" width="1" height="1" fill="#0b0f24"/><rect x="5" y="4" width="1" height="1" fill="#0b0f24"/><rect x="6" y="4" width="4" height="1" fill="#4a3a2e"/><rect x="10" y="4" width="1" height="1" fill="#0b0f24"/><rect x="5" y="5" width="1" height="1" fill="#0b0f24"/><rect x="6" y="5" width="1" height="1" fill="#4a3a2e"/><rect x="7" y="5" width="2" height="1" fill="#d8dae2"/><rect x="9" y="5" width="1" height="1" fill="#4a3a2e"/><rect x="10" y="5" width="1" height="1" fill="#0b0f24"/><rect x="5" y="6" width="1" height="1" fill="#0b0f24"/><rect x="6" y="6" width="1" height="1" fill="#4a3a2e"/><rect x="7" y="6" width="2" height="1" fill="#d8dae2"/><rect x="9" y="6" width="1" height="1" fill="#4a3a2e"/><rect x="10" y="6" width="1" height="1" fill="#0b0f24"/><rect x="5" y="7" width="1" height="1" fill="#0b0f24"/><rect x="6" y="7" width="1" height="1" fill="#4a3a2e"/><rect x="7" y="7" width="2" height="1" fill="#d8dae2"/><rect x="9" y="7" width="1" height="1" fill="#4a3a2e"/><rect x="10" y="7" width="1" height="1" fill="#0b0f24"/><rect x="5" y="8" width="1" height="1" fill="#0b0f24"/><rect x="6" y="8" width="1" height="1" fill="#4a3a2e"/><rect x="7" y="8" width="2" height="1" fill="#d8dae2"/><rect x="9" y="8" width="1" height="1" fill="#4a3a2e"/><rect x="10" y="8" width="1" height="1" fill="#0b0f24"/><rect x="5" y="9" width="1" height="1" fill="#0b0f24"/><rect x="6" y="9" width="1" height="1" fill="#4a3a2e"/><rect x="7" y="9" width="2" height="1" fill="#d8dae2"/><rect x="9" y="9" width="1" height="1" fill="#4a3a2e"/><rect x="10" y="9" width="1" height="1" fill="#0b0f24"/><rect x="5" y="10" width="1" height="1" fill="#0b0f24"/><rect x="6" y="10" width="1" height="1" fill="#4a3a2e"/><rect x="7" y="10" width="2" height="1" fill="#d8dae2"/><rect x="9" y="10" width="1" height="1" fill="#4a3a2e"/><rect x="10" y="10" width="1" height="1" fill="#0b0f24"/><rect x="5" y="11" width="1" height="1" fill="#0b0f24"/><rect x="6" y="11" width="1" height="1" fill="#4a3a2e"/><rect x="7" y="11" width="2" height="1" fill="#d8dae2"/><rect x="9" y="11" width="1" height="1" fill="#4a3a2e"/><rect x="10" y="11" width="1" height="1" fill="#0b0f24"/><rect x="5" y="12" width="1" height="1" fill="#0b0f24"/><rect x="6" y="12" width="1" height="1" fill="#4a3a2e"/><rect x="7" y="12" width="2" height="1" fill="#d8dae2"/><rect x="9" y="12" width="1" height="1" fill="#4a3a2e"/><rect x="10" y="12" width="1" height="1" fill="#0b0f24"/><rect x="4" y="13" width="1" height="1" fill="#0b0f24"/><rect x="5" y="13" width="6" height="1" fill="#ffd34d"/><rect x="11" y="13" width="1" height="1" fill="#0b0f24"/><rect x="3" y="14" width="1" height="1" fill="#0b0f24"/><rect x="4" y="14" width="8" height="1" fill="#ffd34d"/><rect x="12" y="14" width="2" height="1" fill="#0b0f24"/><rect x="2" y="15" width="1" height="1" fill="#0b0f24"/><rect x="3" y="15" width="11" height="1" fill="#ffd34d"/><rect x="14" y="15" width="2" height="1" fill="#0b0f24"/><rect x="1" y="16" width="1" height="1" fill="#0b0f24"/><rect x="2" y="16" width="14" height="1" fill="#ffd34d"/><rect x="16" y="16" width="1" height="1" fill="#0b0f24"/><rect x="1" y="17" width="1" height="1" fill="#0b0f24"/><rect x="2" y="17" width="15" height="1" fill="#ffd34d"/><rect x="17" y="17" width="1" height="1" fill="#0b0f24"/><rect x="1" y="18" width="1" height="1" fill="#0b0f24"/><rect x="2" y="18" width="4" height="1" fill="#ffd34d"/><rect x="6" y="18" width="6" height="1" fill="#0b0f24"/><rect x="12" y="18" width="6" height="1" fill="#ffd34d"/><rect x="18" y="18" width="1" height="1" fill="#0b0f24"/><rect x="1" y="19" width="1" height="1" fill="#0b0f24"/><rect x="2" y="19" width="4" height="1" fill="#ffd34d"/><rect x="6" y="19" width="6" height="1" fill="#0b0f24"/><rect x="12" y="19" width="6" height="1" fill="#ffd34d"/><rect x="18" y="19" width="1" height="1" fill="#0b0f24"/><rect x="1" y="20" width="1" height="1" fill="#0b0f24"/><rect x="2" y="20" width="16" height="1" fill="#ffd34d"/><rect x="18" y="20" width="1" height="1" fill="#0b0f24"/><rect x="1" y="21" width="1" height="1" fill="#0b0f24"/><rect x="2" y="21" width="4" height="1" fill="#ffd34d"/><rect x="6" y="21" width="6" height="1" fill="#0b0f24"/><rect x="12" y="21" width="6" height="1" fill="#ffd34d"/><rect x="18" y="21" width="1" height="1" fill="#0b0f24"/><rect x="1" y="22" width="1" height="1" fill="#0b0f24"/><rect x="2" y="22" width="4" height="1" fill="#ffd34d"/><rect x="6" y="22" width="6" height="1" fill="#0b0f24"/><rect x="12" y="22" width="6" height="1" fill="#ffd34d"/><rect x="18" y="22" width="1" height="1" fill="#0b0f24"/><rect x="1" y="23" width="1" height="1" fill="#0b0f24"/><rect x="2" y="23" width="16" height="1" fill="#ffd34d"/><rect x="18" y="23" width="1" height="1" fill="#0b0f24"/><rect x="1" y="24" width="1" height="1" fill="#0b0f24"/><rect x="2" y="24" width="12" height="1" fill="#ffd34d"/><rect x="14" y="24" width="3" height="1" fill="#9aa0b4"/><rect x="17" y="24" width="1" height="1" fill="#ffd34d"/><rect x="18" y="24" width="1" height="1" fill="#0b0f24"/><rect x="1" y="25" width="1" height="1" fill="#0b0f24"/><rect x="2" y="25" width="16" height="1" fill="#ffd34d"/><rect x="18" y="25" width="1" height="1" fill="#0b0f24"/><rect x="2" y="26" width="1" height="1" fill="#0b0f24"/><rect x="3" y="26" width="14" height="1" fill="#ffd34d"/><rect x="17" y="26" width="1" height="1" fill="#0b0f24"/><rect x="3" y="27" width="1" height="1" fill="#0b0f24"/><rect x="4" y="27" width="12" height="1" fill="#ffd34d"/><rect x="16" y="27" width="1" height="1" fill="#0b0f24"/><rect x="4" y="28" width="2" height="1" fill="#0b0f24"/><rect x="6" y="28" width="8" height="1" fill="#ffd34d"/><rect x="14" y="28" width="2" height="1" fill="#0b0f24"/></svg>