<svg xmlns="http://www.w3.org/2000/svg" viewBox="0 0 16 35" shape-rendering="crispEdges" aria-hidden="true" focusable="false"><rect x="3" y="0" width="10" height="1" fill="#0b0f24"/><rect x="3" y="1" width="1" height="1" fill="#0b0f24"/><rect x="4" y="1" width="8" height="1" fill="#ffd34d"/><rect x="12" y="1" width="1" height="1" fill="#0b0f24"/><rect x="3" y="2" width="1" height="1" fill="#0b0f24"/><rect x="4" y="2" width="1" height="1" fill="#ffd34d"/><rect x="5" y="2" width="6" height="1" fill="#0b0f24"/><rect x="11" y="2" width="1" height="1" fill="#ffd34d"/><rect x="12" y="2" width="1" height="1" fill="#0b0f24"/><rect x="3" y="3" width="1" height="1" fill="#0b0f24"/><rect x="4" y="3" width="8" height="1" fill="#ffd34d"/><rect x="12" y="3" width="1" height="1" fill="#0b0f24"/><rect x="3" y="4" width="10" height="1" fill="#0b0f24"/><rect x="6" y="5" width="1" height="1" fill="#0b0f24"/><rect x="7" y="5" width="1" height="1" fill="#5c2a2a"/><rect x="8" y="5" width="1" height="1" fill="#3de8c4"/><rect x="9" y="5" width="1" height="1" fill="#5c2a2a"/><rect x="10" y="5" width="1" height="1" fill="#0b0f24"/><rect x="6" y="6" width="1" height="1" fill="#0b0f24"/><rect x="7" y="6" width="1" height="1" fill="#5c2a2a"/><rect x="8" y="6" width="1" height="1" fill="#3de8c4"/><rect x="9" y="6" width="1" height="1" fill="#5c2a2a"/><rect x="10" y="6" width="1" height="1" fill="#0b0f24"/><rect x="6" y="7" width="1" height="1" fill="#0b0f24"/><rect x="7" y="7" width="1" height="1" fill="#5c2a2a"/><rect x="8" y="7" width="1" height="1" fill="#3de8c4"/><rect x="9" y="7" width="1" height="1" fill="#5c2a2a"/><rect x="10" y="7" width="1" height="1" fill="#0b0f24"/><rect x="6" y="8" width="1" height="1" fill="#0b0f24"/><rect x="7" y="8" width="1" height="1" fill="#5c2a2a"/><rect x="8" y="8" width="1" height="1" fill="#3de8c4"/><rect x="9" y="8" width="1" height="1" fill="#5c2a2a"/><rect x="10" y="8" width="1" height="1" fill="#0b0f24"/><rect x="6" y="9" width="1" height="1" fill="#0b0f24"/><rect x="7" y="9" width="1" height="1" fill="#5c2a2a"/><rect x="8" y="9" width="1" height="1" fill="#3de8c4"/><rect x="9" y="9" width="1" height="1" fill="#5c2a2a"/><rect x="10" y="9" width="1" height="1" fill="#0b0f24"/><rect x="6" y="10" width="1" height="1" fill="#0b0f24"/><rect x="7" y="10" width="1" height="1" fill="#5c2a2a"/><rect x="8" y="10" width="1" height="1" fill="#3de8c4"/><rect x="9" y="10" width="1" height="1" fill="#5c2a2a"/><rect x="10" y="10" width="1" height="1" fill="#0b0f24"/><rect x="6" y="11" width="1" height="1" fill="#0b0f24"/><rect x="7" y="11" width="1" height="1" fill="#5c2a2a"/><rect x="8" y="11" width="1" height="1" fill="#3de8c4"/><rect x="9" y="11" width="1" height="1" fill="#5c2a2a"/><rect x="10" y="11" width="1" height="1" fill="#0b0f24"/><rect x="6" y="12" width="1" height="1" fill="#0b0f24"/><rect x="7" y="12" width="1" height="1" fill="#5c2a2a"/><rect x="8" y="12" width="1" height="1" fill="#3de8c4"/><rect x="9" y="12" width="1" height="1" fill="#5c2a2a"/><rect x="10" y="12" width="1" height="1" fill="#0b0f24"/><rect x="4" y="13" width="8" height="1" fill="#0b0f24"/><rect x="3" y="14" width="1" height="1" fill="#0b0f24"/><rect x="4" y="14" width="8" height="1" fill="#ffd34d"/><rect x="12" y="14" width="1" height="1" fill="#0b0f24"/><rect x="2" y="15" width="1" height="1" fill="#0b0f24"/><rect x="3" y="15" width="10" height="1" fill="#ffd34d"/><rect x="13" y="15" width="1" height="1" fill="#0b0f24"/><rect x="1" y="16" width="1" height="1" fill="#0b0f24"/><rect x="2" y="16" width="12" height="1" fill="#ffd34d"/><rect x="14" y="16" width="1" height="1" fill="#0b0f24"/><rect x="1" y="17" width="1" height="1" fill="#0b0f24"/><rect x="2" y="17" width="12" height="1" fill="#ffd34d"/><rect x="14" y="17" width="1" height="1" fill="#0b0f24"/><rect x="1" y="18" width="1" height="1" fill="#0b0f24"/><rect x="2" y="18" width="12" height="1" fill="#ffd34d"/><rect x="14" y="18" width="1" height="1" fill="#0b0f24"/><rect x="1" y="19" width="1" height="1" fill="#0b0f24"/><rect x="2" y="19" width="2" height="1" fill="#ffd34d"/><rect x="4" y="19" width="8" height="1" fill="#0b0f24"/><rect x="12" y="19" width="2" height="1" fill="#ffd34d"/><rect x="14" y="19" width="1" height="1" fill="#0b0f24"/><rect x="1" y="20" width="1" height="1" fill="#0b0f24"/><rect x="2" y="20" width="2" height="1" fill="#ffd34d"/><rect x="4" y="20" width="1" height="1" fill="#0b0f24"/><rect x="5" y="20" width="6" height="1" fill="#8f1d1d"/><rect x="11" y="20" width="1" height="1" fill="#0b0f24"/><rect x="12" y="20" width="2" height="1" fill="#ffd34d"/><rect x="14" y="20" width="1" height="1" fill="#0b0f24"/><rect x="1" y="21" width="1" height="1" fill="#0b0f24"/><rect x="2" y="21" width="2" height="1" fill="#ffd34d"/><rect x="4" y="21" width="8" height="1" fill="#0b0f24"/><rect x="12" y="21" width="2" height="1" fill="#ffd34d"/><rect x="14" y="21" width="1" height="1" fill="#0b0f24"/><rect x="1" y="22" width="1" height="1" fill="#0b0f24"/><rect x="2" y="22" width="12" height="1" fill="#ffd34d"/><rect x="14" y="22" width="1" height="1" fill="#0b0f24"/><rect x="2" y="23" width="1" height="1" fill="#0b0f24"/><rect x="3" y="23" width="10" height="1" fill="#ffd34d"/><rect x="13" y="23" width="1" height="1" fill="#0b0f24"/><rect x="3" y="24" width="1" height="1" fill="#0b0f24"/><rect x="4" y="24" width="8" height="1" fill="#ffd34d"/><rect x="12" y="24" width="1" height="1" fill="#0b0f24"/><rect x="3" y="25" width="1" height="1" fill="#0b0f24"/><rect x="4" y="25" width="8" height="1" fill="#ffd34d"/><rect x="12" y="25" width="1" height="1" fill="#0b0f24"/><rect x="2" y="26" width="1" height="1" fill="#0b0f24"/><rect x="3" y="26" width="10" height="1" fill="#ffd34d"/><rect x="13" y="26" width="1" height="1" fill="#0b0f24"/><rect x="1" y="27" width="1" height="1" fill="#0b0f24"/><rect x="2" y="27" width="12" height="1" fill="#ffd34d"/><rect x="14" y="27" width="1" height="1" fill="#0b0f24"/><rect x="1" y="28" width="1" height="1" fill="#0b0f24"/><rect x="2" y="28" width="12" height="1" fill="#ffd34d"/><rect x="14" y="28" width="1" height="1" fill="#0b0f24"/><rect x="1" y="29" width="1" height="1" fill="#0b0f24"/><rect x="2" y="29" width="2" height="1" fill="#ffd34d"/><rect x="4" y="29" width="8" height="1" fill="#0b0f24"/><rect x="12" y="29" width="2" height="1" fill="#ffd34d"/><rect x="14" y="29" width="1" height="1" fill="#0b0f24"/><rect x="1" y="30" width="1" height="1" fill="#0b0f24"/><rect x="2" y="30" width="2" height="1" fill="#ffd34d"/><rect x="4" y="30" width="1" height="1" fill="#0b0f24"/><rect x="5" y="30" width="6" height="1" fill="#8f1d1d"/><rect x="11" y="30" width="1" height="1" fill="#0b0f24"/><rect x="12" y="30" width="2" height="1" fill="#ffd34d"/><rect x="14" y="30" width="1" height="1" fill="#0b0f24"/><rect x="1" y="31" width="1" height="1" fill="#0b0f24"/><rect x="2" y="31" width="2" height="1" fill="#ffd34d"/><rect x="4" y="31" width="8" height="1" fill="#0b0f24"/><rect x="12" y="31" width="2" height="1" fill="#ffd34d"/><rect x="14" y="31" width="1" height="1" fill="#0b0f24"/><rect x="1" y="32" width="1" height="1" fill="#0b0f24"/><rect x="2" y="32" width="12" height="1" fill="#ffd34d"/><rect x="14" y="32" width="1" height="1" fill="#0b0f24"/><rect x="2" y="33" width="1" height="1" fill="#0b0f24"/><rect x="3" y="33" width="10" height="1" fill="#ffd34d"/><rect x="13" y="33" width="1" height="1" fill="#0b0f24"/><rect x="3" y="34" width="10" height="1" fill="#0b0f24"/></svg>