<svg xmlns="http://www.w3.org/2000/svg" viewBox="0 0 16 25" shape-rendering="crispEdges" aria-hidden="true" focusable="false"><rect x="4" y="0" width="1" height="1" fill="#0b0f24"/><rect x="5" y="0" width="5" height="1" fill="#ffd34d"/><rect x="10" y="0" width="1" height="1" fill="#0b0f24"/><rect x="3" y="1" width="1" height="1" fill="#0b0f24"/><rect x="4" y="1" width="1" height="1" fill="#ffd34d"/><rect x="5" y="1" width="5" height="1" fill="#3de8c4"/><rect x="10" y="1" width="1" height="1" fill="#ffd34d"/><rect x="11" y="1" width="1" height="1" fill="#0b0f24"/><rect x="3" y="2" width="1" height="1" fill="#0b0f24"/><rect x="4" y="2" width="7" height="1" fill="#ffd34d"/><rect x="11" y="2" width="1" height="1" fill="#0b0f24"/><rect x="4" y="3" width="1" height="1" fill="#0b0f24"/><rect x="5" y="3" width="5" height="1" fill="#9aa0b4"/><rect x="10" y="3" width="1" height="1" fill="#0b0f24"/><rect x="3" y="4" width="1" height="1" fill="#0b0f24"/><rect x="4" y="4" width="7" height="1" fill="#f5e7cd"/><rect x="11" y="4" width="1" height="1" fill="#0b0f24"/><rect x="3" y="5" width="1" height="1" fill="#0b0f24"/><rect x="4" y="5" width="1" height="1" fill="#f5e7cd"/><rect x="5" y="5" width="5" height="1" fill="#d32f2f"/><rect x="10" y="5" width="1" height="1" fill="#f5e7cd"/><rect x="11" y="5" width="1" height="1" fill="#0b0f24"/><rect x="3" y="6" width="1" height="1" fill="#0b0f24"/><rect x="4" y="6" width="1" height="1" fill="#f5e7cd"/><rect x="5" y="6" width="5" height="1" fill="#d32f2f"/><rect x="10" y="6" width="1" height="1" fill="#f5e7cd"/><rect x="11" y="6" width="1" height="1" fill="#0b0f24"/><rect x="3" y="7" width="1" height="1" fill="#0b0f24"/><rect x="4" y="7" width="7" height="1" fill="#f5e7cd"/><rect x="11" y="7" width="1" height="1" fill="#0b0f24"/><rect x="3" y="8" width="1" height="1" fill="#0b0f24"/><rect x="4" y="8" width="1" height="1" fill="#f5e7cd"/><rect x="5" y="8" width="5" height="1" fill="#d32f2f"/><rect x="10" y="8" width="1" height="1" fill="#f5e7cd"/><rect x="11" y="8" width="1" height="1" fill="#0b0f24"/><rect x="3" y="9" width="1" height="1" fill="#0b0f24"/><rect x="4" y="9" width="1" height="1" fill="#f5e7cd"/><rect x="5" y="9" width="5" height="1" fill="#d32f2f"/><rect x="10" y="9" width="1" height="1" fill="#f5e7cd"/><rect x="11" y="9" width="1" height="1" fill="#0b0f24"/><rect x="3" y="10" width="1" height="1" fill="#0b0f24"/><rect x="4" y="10" width="7" height="1" fill="#f5e7cd"/><rect x="11" y="10" width="1" height="1" fill="#0b0f24"/><rect x="3" y="11" width="1" height="1" fill="#0b0f24"/><rect x="4" y="11" width="1" height="1" fill="#f5e7cd"/><rect x="5" y="11" width="5" height="1" fill="#d32f2f"/><rect x="10" y="11" width="1" height="1" fill="#f5e7cd"/><rect x="11" y="11" width="1" height="1" fill="#0b0f24"/><rect x="3" y="12" width="1" height="1" fill="#0b0f24"/><rect x="4" y="12" width="7" height="1" fill="#f5e7cd"/><rect x="11" y="12" width="1" height="1" fill="#0b0f24"/><rect x="2" y="13" width="1" height="1" fill="#0b0f24"/><rect x="3" y="13" width="9" height="1" fill="#f5e7cd"/><rect x="12" y="13" width="1" height="1" fill="#0b0f24"/><rect x="2" y="14" width="1" height="1" fill="#0b0f24"/><rect x="3" y="14" width="1" height="1" fill="#f5e7cd"/><rect x="4" y="14" width="7" height="1" fill="#d32f2f"/><rect x="11" y="14" width="1" height="1" fill="#f5e7cd"/><rect x="12" y="14" width="1" height="1" fill="#0b0f24"/><rect x="2" y="15" width="1" height="1" fill="#0b0f24"/><rect x="3" y="15" width="9" height="1" fill="#f5e7cd"/><rect x="12" y="15" width="1" height="1" fill="#0b0f24"/><rect x="1" y="16" width="1" height="1" fill="#0b0f24"/><rect x="2" y="16" width="11" height="1" fill="#f5e7cd"/><rect x="13" y="16" width="1" height="1" fill="#0b0f24"/><rect x="1" y="17" width="1" height="1" fill="#0b0f24"/><rect x="2" y="17" width="1" height="1" fill="#f5e7cd"/><rect x="3" y="17" width="9" height="1" fill="#d32f2f"/><rect x="12" y="17" width="1" height="1" fill="#f5e7cd"/><rect x="13" y="17" width="1" height="1" fill="#0b0f24"/><rect x="1" y="18" width="1" height="1" fill="#0b0f24"/><rect x="2" y="18" width="11" height="1" fill="#f5e7cd"/><rect x="13" y="18" width="1" height="1" fill="#0b0f24"/><rect x="0" y="19" width="1" height="1" fill="#0b0f24"/><rect x="1" y="19" width="13" height="1" fill="#f5e7cd"/><rect x="14" y="19" width="1" height="1" fill="#0b0f24"/><rect x="0" y="20" width="1" height="1" fill="#0b0f24"/><rect x="1" y="20" width="1" height="1" fill="#f5e7cd"/><rect x="2" y="20" width="11" height="1" fill="#d32f2f"/><rect x="13" y="20" width="1" height="1" fill="#f5e7cd"/><rect x="14" y="20" width="1" height="1" fill="#0b0f24"/><rect x="0" y="21" width="1" height="1" fill="#0b0f24"/><rect x="1" y="21" width="13" height="1" fill="#f5e7cd"/><rect x="14" y="21" width="1" height="1" fill="#0b0f24"/><rect x="0" y="22" width="15" height="1" fill="#f5e7cd"/><rect x="15" y="22" width="1" height="1" fill="#0b0f24"/><rect x="0" y="23" width="1" height="1" fill="#f5e7cd"/><rect x="1" y="23" width="13" height="1" fill="#d32f2f"/><rect x="14" y="23" width="1" height="1" fill="#f5e7cd"/><rect x="15" y="23" width="1" height="1" fill="#0b0f24"/><rect x="0" y="24" width="15" height="1" fill="#f5e7cd"/><rect x="15" y="24" width="1" height="1" fill="#0b0f24"/></svg>